<svg xmlns="http://www.w3.org/2000/svg" width="470pt" height="328pt" viewBox="0 0 469.83 327.77"><g id="graph0" class="graph" transform="scale(1 1) rotate(0) translate(4 323.7702)"><title>mygraph</title><polygon fill="#fff" stroke="transparent" points="-4 4 -4 -323.77 465.826 -323.77 465.826 4 -4 4"/><g id="node1" class="node"><title>c</title><ellipse cx="86.913" cy="-159.885" fill="#91d2ff" stroke="#91d2ff" rx="86.826" ry="41.091"/><text x="86.913" y="-172.485" fill="#000" font-family="Times,serif" font-size="14" text-anchor="middle">INP c</text><text x="86.913" y="-155.685" fill="#000" font-family="Times,serif" font-size="14" text-anchor="middle">Tensor addr: 7</text><text x="86.913" y="-138.885" fill="#000" font-family="Times,serif" font-size="14" text-anchor="middle">Tensor total size: 3</text></g><g id="node5" class="node"><title>mse_loss</title><ellipse cx="86.913" cy="-41.295" fill="none" stroke="#000" rx="86.826" ry="41.091"/><text x="86.913" y="-53.895" fill="#000" font-family="Times,serif" font-size="14" text-anchor="middle">LOSS mse_loss</text><text x="86.913" y="-37.095" fill="#000" font-family="Times,serif" font-size="14" text-anchor="middle">Tensor addr: 25</text><text x="86.913" y="-20.295" fill="#000" font-family="Times,serif" font-size="14" text-anchor="middle">Tensor total size: 1</text></g><g id="edge3" class="edge"><title>c-&gt;mse_loss</title><path fill="none" stroke="#000" d="M86.9132,-118.4081C86.9132,-110.2405 86.9132,-101.5758 86.9132,-93.1172"/><polygon fill="#000" stroke="#000" points="90.413 -92.949 86.913 -82.949 83.413 -92.949 90.413 -92.949"/></g><g id="node2" class="node"><title>b</title><ellipse cx="182.913" cy="-278.475" fill="#ffdf9e" stroke="#ffdf9e" rx="86.826" ry="41.091"/><text x="182.913" y="-291.075" fill="#000" font-family="Times,serif" font-size="14" text-anchor="middle">INP b</text><text x="182.913" y="-274.275" fill="#000" font-family="Times,serif" font-size="14" text-anchor="middle">Tensor addr: 4</text><text x="182.913" y="-257.475" fill="#000" font-family="Times,serif" font-size="14" text-anchor="middle">Tensor total size: 3</text></g><g id="node4" class="node"><title>vector_add_1</title><ellipse cx="278.913" cy="-159.885" fill="none" stroke="#000" rx="87.425" ry="41.091"/><text x="278.913" y="-172.485" fill="#000" font-family="Times,serif" font-size="14" text-anchor="middle">ACT vector_add_1</text><text x="278.913" y="-155.685" fill="#000" font-family="Times,serif" font-size="14" text-anchor="middle">Tensor addr: 10</text><text x="278.913" y="-138.885" fill="#000" font-family="Times,serif" font-size="14" text-anchor="middle">Tensor total size: 3</text></g><g id="edge1" class="edge"><title>b-&gt;vector_add_1</title><path fill="none" stroke="#000" d="M214.3472,-239.6444C222.8837,-229.0991 232.217,-217.5696 241.0676,-206.6363"/><polygon fill="#000" stroke="#000" points="243.837 -208.778 247.409 -198.803 238.396 -204.374 243.837 -208.778"/></g><g id="node3" class="node"><title>a</title><ellipse cx="374.913" cy="-278.475" fill="#ffdf9e" stroke="#ffdf9e" rx="86.826" ry="41.091"/><text x="374.913" y="-291.075" fill="#000" font-family="Times,serif" font-size="14" text-anchor="middle">INP a</text><text x="374.913" y="-274.275" fill="#000" font-family="Times,serif" font-size="14" text-anchor="middle">Tensor addr: 1</text><text x="374.913" y="-257.475" fill="#000" font-family="Times,serif" font-size="14" text-anchor="middle">Tensor total size: 3</text></g><g id="edge2" class="edge"><title>a-&gt;vector_add_1</title><path fill="none" stroke="#000" d="M343.4792,-239.6444C334.9427,-229.0991 325.6094,-217.5696 316.7588,-206.6363"/><polygon fill="#000" stroke="#000" points="319.43 -204.374 310.418 -198.803 313.989 -208.778 319.43 -204.374"/></g><g id="edge4" class="edge"><title>vector_add_1-&gt;mse_loss</title><path fill="none" stroke="#000" d="M225.6854,-127.0086C201.7603,-112.2311 173.38,-94.7018 148.5379,-79.3579"/><polygon fill="#000" stroke="#000" points="150.259 -76.307 139.912 -74.03 146.58 -82.263 150.259 -76.307"/></g><g id="node6" class="node"><title>out</title><ellipse cx="278.913" cy="-41.295" fill="none" stroke="#000" rx="86.826" ry="41.091"/><text x="278.913" y="-53.895" fill="#000" font-family="Times,serif" font-size="14" text-anchor="middle">OUTP out</text><text x="278.913" y="-37.095" fill="#000" font-family="Times,serif" font-size="14" text-anchor="middle">Tensor addr: 10</text><text x="278.913" y="-20.295" fill="#000" font-family="Times,serif" font-size="14" text-anchor="middle">Tensor total size: 3</text></g><g id="edge5" class="edge"><title>vector_add_1-&gt;out</title><path fill="none" stroke="#000" d="M278.9132,-118.4081C278.9132,-110.2405 278.9132,-101.5758 278.9132,-93.1172"/><polygon fill="#000" stroke="#000" points="282.413 -92.949 278.913 -82.949 275.413 -92.949 282.413 -92.949"/></g></g></svg>